<svg viewBox="0 0 20 21" fill="none" xmlns="http://www.w3.org/2000/svg">
<g filter="url(#filter0_d)">
<path d="M10 19C14.9706 19 19 14.9706 19 10C19 5.02944 14.9706 1 10 1C5.02944 1 1 5.02944 1 10C1 14.9706 5.02944 19 10 19Z" fill="white"/>
</g>
<path d="M10 18C14.4183 18 18 14.4183 18 10C18 5.58172 14.4183 2 10 2C5.58172 2 2 5.58172 2 10C2 14.4183 5.58172 18 10 18Z" stroke="black" stroke-width="0.5"/>
<path d="M12.6602 12.2582C12.6562 12.4652 12.5996 12.7094 12.4902 12.9906C12.2715 13.5453 11.832 13.9437 11.1719 14.1859C10.8086 14.3187 10.3672 14.3852 9.84766 14.3852C9.33203 14.3852 8.86328 14.2895 8.44141 14.098C8.02344 13.9066 7.72852 13.6937 7.55664 13.4594C7.4707 13.3422 7.42773 13.2484 7.42773 13.1781C7.42773 12.8578 7.55664 12.6977 7.81445 12.6977C7.86133 12.6977 8.11719 12.8168 8.58203 13.0551C9.05078 13.2934 9.52539 13.4125 10.0059 13.4125C10.4902 13.4125 10.8594 13.2973 11.1133 13.0668C11.3711 12.8363 11.5 12.5375 11.5 12.1703C11.5 11.8031 11.3145 11.4711 10.9434 11.1742C10.7246 10.9984 10.2812 10.7582 9.61328 10.4535C8.94922 10.1488 8.48633 9.86562 8.22461 9.6039C7.82617 9.20547 7.62695 8.70351 7.62695 8.09805C7.62695 7.78555 7.69922 7.49258 7.84375 7.21914C7.99219 6.9457 8.19141 6.71914 8.44141 6.53945C8.91406 6.19961 9.47656 6.02969 10.1289 6.02969C10.7812 6.02969 11.291 6.12344 11.6582 6.31094C12.1113 6.5414 12.3379 6.81289 12.3379 7.12539C12.3379 7.36367 12.2188 7.48281 11.9805 7.48281C11.8984 7.48281 11.6562 7.39297 11.2539 7.21328C10.8555 7.03359 10.5059 6.94375 10.2051 6.94375C9.36133 6.94375 8.86523 7.26015 8.7168 7.89297C8.70117 7.95156 8.69336 8.01406 8.69336 8.08047C8.69336 8.225 8.72852 8.37734 8.79883 8.5375C8.90039 8.76797 9.0957 8.97695 9.38477 9.16445C9.47461 9.22305 9.86523 9.41055 10.5566 9.72695C11.248 10.0434 11.7344 10.3363 12.0156 10.6059C12.4453 11.016 12.6602 11.5043 12.6602 12.0707V12.2582Z" fill="black"/>
<defs>
<filter id="filter0_d" x="0" y="0.4" width="20" height="20" filterUnits="userSpaceOnUse" color-interpolation-filters="sRGB">
<feFlood flood-opacity="0" result="BackgroundImageFix"/>
<feColorMatrix in="SourceAlpha" type="matrix" values="0 0 0 0 0 0 0 0 0 0 0 0 0 0 0 0 0 0 127 0"/>
<feOffset dy="0.4"/>
<feGaussianBlur stdDeviation="0.5"/>
<feColorMatrix type="matrix" values="0 0 0 0 0 0 0 0 0 0 0 0 0 0 0 0 0 0 0.4 0"/>
<feBlend mode="normal" in2="BackgroundImageFix" result="effect1_dropShadow"/>
<feBlend mode="normal" in="SourceGraphic" in2="effect1_dropShadow" result="shape"/>
</filter>
</defs>
</svg>
