<svg width="15" height="15" viewBox="0 0 15 15" fill="none" xmlns="http://www.w3.org/2000/svg">
<g id="icon/action/settings_24px">
<g id="icon/action/settings_24px_2">
<path fill-rule="evenodd" clip-rule="evenodd" d="M12.1889 7.5C12.1889 7.7125 12.1701 7.9125 12.1451 8.1125L13.4639 9.14375C13.5826 9.2375 13.6139 9.40625 13.5389 9.54375L12.2889 11.7063C12.2326 11.8063 12.1264 11.8625 12.0201 11.8625C11.9826 11.8625 11.9451 11.8563 11.9076 11.8438L10.3514 11.2188C10.0264 11.4625 9.67638 11.675 9.29513 11.8313L9.05763 13.4875C9.03888 13.6375 8.90763 13.75 8.75138 13.75H6.25138C6.09513 13.75 5.96388 13.6375 5.94513 13.4875L5.70763 11.8313C5.32638 11.675 4.97638 11.4688 4.65138 11.2188L3.09513 11.8438C3.06388 11.8563 3.02638 11.8625 2.98888 11.8625C2.87638 11.8625 2.77013 11.8063 2.71388 11.7063L1.46388 9.54375C1.38888 9.40625 1.42013 9.2375 1.53888 9.14375L2.85763 8.1125C2.83263 7.9125 2.81388 7.70625 2.81388 7.5C2.81388 7.29375 2.83263 7.0875 2.85763 6.8875L1.53888 5.85625C1.42013 5.7625 1.38263 5.59375 1.46388 5.45625L2.71388 3.29375C2.77013 3.19375 2.87638 3.1375 2.98263 3.1375C3.02013 3.1375 3.05763 3.14375 3.09513 3.15625L4.65138 3.78125C4.97638 3.5375 5.32638 3.325 5.70763 3.16875L5.94513 1.5125C5.96388 1.3625 6.09513 1.25 6.25138 1.25H8.75138C8.90763 1.25 9.03888 1.3625 9.05763 1.5125L9.29513 3.16875C9.67638 3.325 10.0264 3.53125 10.3514 3.78125L11.9076 3.15625C11.9389 3.14375 11.9764 3.1375 12.0139 3.1375C12.1264 3.1375 12.2326 3.19375 12.2889 3.29375L13.5389 5.45625C13.6139 5.59375 13.5826 5.7625 13.4639 5.85625L12.1451 6.8875C12.1701 7.0875 12.1889 7.2875 12.1889 7.5ZM6 7.5C6 6.67125 6.67125 6 7.5 6C8.32875 6 9 6.67125 9 7.5C9 8.32875 8.32875 9 7.5 9C6.67125 9 6 8.32875 6 7.5Z" fill="white"/>
<path d="M12.1451 8.1125L11.649 8.05048L11.6138 8.33176L11.8371 8.50637L12.1451 8.1125ZM13.4639 9.14375L13.7737 8.75131L13.7719 8.74988L13.4639 9.14375ZM13.5389 9.54375L13.9719 9.79405L13.9778 9.78318L13.5389 9.54375ZM12.2889 11.7063L11.856 11.456L11.8531 11.4611L12.2889 11.7063ZM11.9076 11.8438L11.7213 12.3077L11.7352 12.3133L11.7495 12.3181L11.9076 11.8438ZM10.3514 11.2188L10.5377 10.7548L10.2765 10.6499L10.0514 10.8188L10.3514 11.2188ZM9.29513 11.8313L9.10552 11.3686L8.8408 11.4771L8.80019 11.7603L9.29513 11.8313ZM9.05763 13.4875L8.56261 13.4165L8.56149 13.4255L9.05763 13.4875ZM5.94513 13.4875L6.44135 13.4255L6.44007 13.4165L5.94513 13.4875ZM5.70763 11.8313L6.20257 11.7603L6.16196 11.4771L5.89724 11.3686L5.70763 11.8313ZM4.65138 11.2188L4.95623 10.8224L4.72996 10.6484L4.46504 10.7548L4.65138 11.2188ZM3.09513 11.8438L3.28082 12.308L3.28147 12.3077L3.09513 11.8438ZM2.71388 11.7063L3.1497 11.4611L3.14676 11.456L2.71388 11.7063ZM1.46388 9.54375L1.0248 9.78325L1.031 9.79397L1.46388 9.54375ZM1.53888 9.14375L1.23087 8.74988L1.22906 8.75131L1.53888 9.14375ZM2.85763 8.1125L3.16563 8.50637L3.38893 8.33176L3.35377 8.05048L2.85763 8.1125ZM2.85763 6.8875L3.35377 6.94952L3.38893 6.66824L3.16563 6.49363L2.85763 6.8875ZM1.53888 5.85625L1.22905 6.2487L1.23088 6.25012L1.53888 5.85625ZM1.46388 5.45625L1.89436 5.71063L1.89676 5.70647L1.46388 5.45625ZM2.71388 3.29375L3.14679 3.54399L3.14967 3.53888L2.71388 3.29375ZM3.09513 3.15625L3.28147 2.69227L3.26751 2.68666L3.25324 2.68191L3.09513 3.15625ZM4.65138 3.78125L4.46504 4.24523L4.72622 4.35012L4.95138 4.18125L4.65138 3.78125ZM5.70763 3.16875L5.89724 3.6314L6.16196 3.52291L6.20257 3.23972L5.70763 3.16875ZM5.94513 1.5125L6.44015 1.58348L6.44127 1.57452L5.94513 1.5125ZM9.05763 1.5125L8.56141 1.57453L8.56269 1.58347L9.05763 1.5125ZM9.29513 3.16875L8.80019 3.23972L8.8408 3.52291L9.10552 3.6314L9.29513 3.16875ZM10.3514 3.78125L10.0465 4.17756L10.2728 4.35162L10.5377 4.24523L10.3514 3.78125ZM11.9076 3.15625L11.7219 2.69201L11.7213 2.69227L11.9076 3.15625ZM12.2889 3.29375L11.8531 3.5389L11.856 3.54397L12.2889 3.29375ZM13.5389 5.45625L13.978 5.21675L13.9718 5.20603L13.5389 5.45625ZM13.4639 5.85625L13.7719 6.25013L13.7737 6.24869L13.4639 5.85625ZM12.1451 6.8875L11.8371 6.49363L11.6138 6.66824L11.649 6.94952L12.1451 6.8875ZM12.6413 8.17452C12.6675 7.96475 12.6889 7.74184 12.6889 7.5H11.6889C11.6889 7.68316 11.6728 7.86025 11.649 8.05048L12.6413 8.17452ZM13.7719 8.74988L12.4531 7.71863L11.8371 8.50637L13.1559 9.53762L13.7719 8.74988ZM13.9778 9.78318C14.1624 9.4448 14.0952 9.00511 13.7737 8.75131L13.1541 9.53619C13.0701 9.46989 13.0654 9.3677 13.0999 9.30432L13.9778 9.78318ZM12.7218 11.9565L13.9718 9.79397L13.106 9.29353L11.856 11.456L12.7218 11.9565ZM12.0201 12.3625C12.2963 12.3625 12.5747 12.2179 12.7247 11.9514L11.8531 11.4611C11.8905 11.3946 11.9564 11.3625 12.0201 11.3625V12.3625ZM11.7495 12.3181C11.8352 12.3467 11.926 12.3625 12.0201 12.3625V11.3625C12.0392 11.3625 12.055 11.3658 12.0657 11.3694L11.7495 12.3181ZM10.165 11.6827L11.7213 12.3077L12.094 11.3798L10.5377 10.7548L10.165 11.6827ZM9.48474 12.2939C9.91371 12.1181 10.3005 11.8819 10.6514 11.6188L10.0514 10.8188C9.75223 11.0431 9.43905 11.2319 9.10552 11.3686L9.48474 12.2939ZM9.55257 13.5585L9.79007 11.9022L8.80019 11.7603L8.56269 13.4165L9.55257 13.5585ZM8.75138 14.25C9.14671 14.25 9.50214 13.9625 9.55377 13.5495L8.56149 13.4255C8.57561 13.3125 8.66855 13.25 8.75138 13.25V14.25ZM6.25138 14.25H8.75138V13.25H6.25138V14.25ZM5.44899 13.5495C5.50061 13.9625 5.85605 14.25 6.25138 14.25V13.25C6.33421 13.25 6.42715 13.3125 6.44127 13.4255L5.44899 13.5495ZM5.21269 11.9022L5.45019 13.5585L6.44007 13.4165L6.20257 11.7603L5.21269 11.9022ZM4.34652 11.6151C4.70414 11.8902 5.09257 12.1195 5.51802 12.2939L5.89724 11.3686C5.56019 11.2305 5.24862 11.0473 4.95623 10.8224L4.34652 11.6151ZM3.28147 12.3077L4.83772 11.6827L4.46504 10.7548L2.90879 11.3798L3.28147 12.3077ZM2.98888 12.3625C3.07715 12.3625 3.17966 12.3485 3.28082 12.308L2.90944 11.3795C2.93039 11.3711 2.94732 11.3672 2.95868 11.3652C2.97036 11.3632 2.98033 11.3625 2.98888 11.3625V12.3625ZM2.27809 11.9514C2.4306 12.2225 2.71202 12.3625 2.98888 12.3625V11.3625C3.04074 11.3625 3.10965 11.39 3.14967 11.4611L2.27809 11.9514ZM1.031 9.79397L2.281 11.9565L3.14676 11.456L1.89676 9.29353L1.031 9.79397ZM1.22906 8.75131C0.907578 9.00511 0.840362 9.4448 1.02493 9.78318L1.90283 9.30432C1.9374 9.3677 1.93268 9.46989 1.8487 9.53619L1.22906 8.75131ZM2.54963 7.71863L1.23088 8.74988L1.84688 9.53762L3.16563 8.50637L2.54963 7.71863ZM2.31388 7.5C2.31388 7.73529 2.33521 7.96428 2.36149 8.17452L3.35377 8.05048C3.33005 7.86072 3.31388 7.67721 3.31388 7.5H2.31388ZM2.36149 6.82548C2.33521 7.03572 2.31388 7.26471 2.31388 7.5H3.31388C3.31388 7.32279 3.33005 7.13928 3.35377 6.94952L2.36149 6.82548ZM1.23088 6.25012L2.54963 7.28137L3.16563 6.49363L1.84688 5.46238L1.23088 6.25012ZM1.03342 5.20189C0.820005 5.56304 0.921526 6.0059 1.22906 6.24869L1.8487 5.46381C1.91873 5.5191 1.94525 5.62446 1.89434 5.71061L1.03342 5.20189ZM2.281 3.04353L1.031 5.20603L1.89676 5.70647L3.14676 3.54397L2.281 3.04353ZM2.98263 2.6375C2.70641 2.6375 2.42801 2.7821 2.27809 3.04862L3.14967 3.53888C3.11225 3.6054 3.04635 3.6375 2.98263 3.6375V2.6375ZM3.25324 2.68191C3.16753 2.65334 3.07672 2.6375 2.98263 2.6375V3.6375C2.96354 3.6375 2.94772 3.63416 2.93702 3.63059L3.25324 2.68191ZM4.83772 3.31727L3.28147 2.69227L2.90879 3.62023L4.46504 4.24523L4.83772 3.31727ZM5.51802 2.7061C5.08905 2.88191 4.70223 3.11811 4.35138 3.38125L4.95138 4.18125C5.25053 3.95689 5.56371 3.7681 5.89724 3.6314L5.51802 2.7061ZM5.45019 1.44153L5.21269 3.09778L6.20257 3.23972L6.44007 1.58347L5.45019 1.44153ZM6.25138 0.75C5.85605 0.75 5.50061 1.0375 5.44899 1.45048L6.44127 1.57452C6.42715 1.6875 6.33421 1.75 6.25138 1.75V0.75ZM8.75138 0.75H6.25138V1.75H8.75138V0.75ZM9.55377 1.45048C9.50214 1.0375 9.14671 0.75 8.75138 0.75V1.75C8.66855 1.75 8.57561 1.6875 8.56149 1.57452L9.55377 1.45048ZM9.79007 3.09778L9.55257 1.44153L8.56269 1.58347L8.80019 3.23972L9.79007 3.09778ZM10.6562 3.38494C10.2986 3.10985 9.91019 2.88046 9.48474 2.7061L9.10552 3.6314C9.44257 3.76954 9.75414 3.95265 10.0465 4.17756L10.6562 3.38494ZM11.7213 2.69227L10.165 3.31727L10.5377 4.24523L12.094 3.62023L11.7213 2.69227ZM12.0139 2.6375C11.9256 2.6375 11.8231 2.65155 11.7219 2.69201L12.0933 3.62049C12.0724 3.62887 12.0554 3.63282 12.0441 3.63479C12.0324 3.63682 12.0224 3.6375 12.0139 3.6375V2.6375ZM12.7247 3.04862C12.5722 2.77749 12.2907 2.6375 12.0139 2.6375V3.6375C11.962 3.6375 11.8931 3.61002 11.8531 3.53888L12.7247 3.04862ZM13.9718 5.20603L12.7218 3.04353L11.856 3.54397L13.106 5.70647L13.9718 5.20603ZM13.7737 6.24869C14.0952 5.99489 14.1624 5.5552 13.9778 5.21682L13.0999 5.69568C13.0654 5.6323 13.0701 5.53011 13.1541 5.46381L13.7737 6.24869ZM12.4531 7.28137L13.7719 6.25012L13.1559 5.46238L11.8371 6.49363L12.4531 7.28137ZM12.6889 7.5C12.6889 7.25816 12.6675 7.03525 12.6413 6.82548L11.649 6.94952C11.6728 7.13975 11.6889 7.31684 11.6889 7.5H12.6889ZM7.5 5.5C6.39511 5.5 5.5 6.39511 5.5 7.5H6.5C6.5 6.94739 6.94739 6.5 7.5 6.5V5.5ZM9.5 7.5C9.5 6.39511 8.60489 5.5 7.5 5.5V6.5C8.05261 6.5 8.5 6.94739 8.5 7.5H9.5ZM7.5 9.5C8.60489 9.5 9.5 8.60489 9.5 7.5H8.5C8.5 8.05261 8.05261 8.5 7.5 8.5V9.5ZM5.5 7.5C5.5 8.60489 6.39511 9.5 7.5 9.5V8.5C6.94739 8.5 6.5 8.05261 6.5 7.5H5.5Z" fill="black"/>
</g>
</g>
</svg>
